<?xml version="1.0" encoding="UTF-8" standalone="no"?>
<!-- Generated by IcoMoon.io -->

<svg
   xmlns:dc="http://purl.org/dc/elements/1.1/"
   xmlns:cc="http://creativecommons.org/ns#"
   xmlns:rdf="http://www.w3.org/1999/02/22-rdf-syntax-ns#"
   xmlns:svg="http://www.w3.org/2000/svg"
   xmlns="http://www.w3.org/2000/svg"
   xmlns:sodipodi="http://sodipodi.sourceforge.net/DTD/sodipodi-0.dtd"
   xmlns:inkscape="http://www.inkscape.org/namespaces/inkscape"
   version="1.1"
   width="32"
   height="32"
   viewBox="0 0 32 32"
   id="svg3386"
   inkscape:version="0.91 r13725"
   sodipodi:docname="logo.svg">
  <metadata
     id="metadata3396">
    <rdf:RDF>
      <cc:Work
         rdf:about="">
        <dc:format>image/svg+xml</dc:format>
        <dc:type
           rdf:resource="http://purl.org/dc/dcmitype/StillImage" />
        <dc:title>fire</dc:title>
      </cc:Work>
    </rdf:RDF>
  </metadata>
  <defs
     id="defs3394" />
  <sodipodi:namedview
     pagecolor="#ffffff"
     bordercolor="#666666"
     borderopacity="1"
     objecttolerance="10"
     gridtolerance="10"
     guidetolerance="10"
     inkscape:pageopacity="0"
     inkscape:pageshadow="2"
     inkscape:window-width="1597"
     inkscape:window-height="996"
     id="namedview3392"
     showgrid="false"
     inkscape:zoom="20.970135"
     inkscape:cx="9.0854047"
     inkscape:cy="16"
     inkscape:window-x="0"
     inkscape:window-y="0"
     inkscape:window-maximized="0"
     inkscape:current-layer="svg3386" />
  <title
     id="title3388">fire</title>
  <path
     d="M10.031 32c-2.133-4.438-0.997-6.981 0.642-9.376 1.795-2.624 2.258-5.221 2.258-5.221s1.411 1.834 0.847 4.703c2.493-2.775 2.963-7.196 2.587-8.889 5.635 3.938 8.043 12.464 4.798 18.783 17.262-9.767 4.294-24.38 2.036-26.027 0.753 1.646 0.895 4.433-0.625 5.785-2.573-9.759-8.937-11.759-8.937-11.759 0.753 5.033-2.728 10.536-6.084 14.648-0.118-2.007-0.243-3.392-1.298-5.312-0.237 3.646-3.023 6.617-3.777 10.27-1.022 4.946 0.765 8.568 7.555 12.394z"
     id="path3390" />
  <path
     style="fill:#8d6e63;stroke:none;stroke-width:1px;stroke-linecap:butt;stroke-linejoin:miter;stroke-opacity:1;fill-opacity:1"
     d="M 9.1473976,31.446348 C 5.0630848,28.971797 3.02364,26.643013 2.3981548,23.739578 2.2524534,23.063248 2.2153481,21.502089 2.3250497,20.663775 2.555254,18.904607 2.9016616,17.918188 4.2843955,15.084412 5.6495734,12.286615 5.9457592,11.504241 6.1866057,10.059726 L 6.2889208,9.4460738 6.4960064,9.8689781 c 0.5949358,1.2149609 0.8936062,2.4549259 0.9863128,4.0947929 0.017792,0.314733 0.04687,0.599741 0.064616,0.633351 0.022292,0.04222 0.076872,0.0054 0.1765582,-0.119217 3.6105804,-4.5122303 5.5543474,-8.3582203 5.9549134,-11.7825533 0.07857,-0.6716836 0.09071,-1.80950107 0.02476,-2.32159915 -0.02359,-0.18318859 -0.03722,-0.33874593 -0.03028,-0.34568299 0.03712,-0.03711464 1.503795,0.74146013 1.912233,1.01509254 1.463884,0.9807269 2.978623,2.5135814 4.035128,4.0833865 1.190664,1.7691449 2.18203,3.9470398 2.785366,6.1190714 0.07286,0.262277 0.148226,0.494825 0.167492,0.516772 0.05488,0.06252 0.54023,-0.574269 0.73662,-0.966468 0.09758,-0.194877 0.232441,-0.559681 0.299686,-0.8106763 0.109437,-0.4084823 0.122638,-0.548901 0.125833,-1.3385621 0.0039,-0.9616471 -0.04624,-1.3071161 -0.307606,-2.119973 -0.07553,-0.2348993 -0.13178,-0.4326362 -0.125001,-0.4394158 0.03511,-0.035109 1.014832,0.9368971 1.493274,1.4815126 2.33881,2.6622926 4.039872,5.7760796 4.762101,8.7170116 0.302088,1.230106 0.375424,1.859333 0.37686,3.23347 0.0014,1.342885 -0.06459,1.897619 -0.356433,2.996 -0.909534,3.423158 -3.462246,6.4415 -7.569583,8.950321 -0.374884,0.228984 -0.692204,0.405737 -0.705157,0.392785 -0.01295,-0.01295 0.0655,-0.224824 0.174341,-0.470826 0.565709,-1.27863 0.93309,-2.683064 1.09623,-4.190695 0.07064,-0.652853 0.07057,-2.160398 -1.43e-4,-2.885056 -0.351018,-3.597138 -1.861781,-6.95369 -4.245009,-9.431389 -0.670145,-0.69671 -1.868185,-1.712994 -1.937565,-1.643614 -0.01137,0.01137 0.0044,0.292993 0.035,0.625824 0.122498,1.331484 -0.151773,3.163439 -0.721946,4.822129 -0.363879,1.058563 -1.140621,2.481972 -1.69145,3.099647 l -0.170104,0.190747 0.03651,-0.357651 c 0.103925,-1.017912 -0.01278,-2.156984 -0.304056,-2.967729 -0.149743,-0.416795 -0.445485,-1.016613 -0.582312,-1.181029 -0.09344,-0.112276 -0.0993,-0.113513 -0.100798,-0.02125 -0.0028,0.170683 -0.333446,1.294832 -0.558059,1.897116 -0.431583,1.157256 -0.928393,2.10842 -1.79741,3.441215 -1.1475104,1.759915 -1.6034168,2.967177 -1.6831688,4.457113 -0.064612,1.207098 0.2613555,2.736126 0.8877506,4.164203 0.1126287,0.256775 0.1967002,0.474647 0.1868252,0.484162 -0.00988,0.0095 -0.361301,-0.190723 -0.7809454,-0.444971 z"
     id="path3398"
     inkscape:connector-curvature="0" />
</svg>
